<svg xmlns="http://www.w3.org/2000/svg" viewBox="0 0 640 280" role="img" aria-labelledby="title desc">
  <title id="title">Respawn Society Group logo</title>
  <desc id="desc">Blue Respawn Society Group monogram with a teal growth arrow.</desc>
  <defs>
    <linearGradient id="tealArrow" x1="155" y1="130" x2="470" y2="20" gradientUnits="userSpaceOnUse">
      <stop offset="0" stop-color="#15b8a6"/>
      <stop offset="1" stop-color="#18c7ae"/>
    </linearGradient>
    <filter id="softShadow" x="-10%" y="-10%" width="120%" height="125%">
      <feDropShadow dx="0" dy="4" stdDeviation="3" flood-color="#003b6f" flood-opacity=".18"/>
    </filter>
  </defs>

  <g filter="url(#softShadow)">
    <g fill="none" stroke="#003b6f" stroke-width="19" stroke-linecap="round" stroke-linejoin="round">
      <path d="M245 88c-28-4-54 13-62 41-8 29 8 59 37 68 21 7 44 1 59-15"/>
      <path d="M356 73c-23-27-64-30-91-6-20 18-27 46-18 72"/>
      <path d="M388 165c14 27 5 60-21 77-29 19-68 9-86-20"/>
      <path d="M222 202c25 36 75 43 109 16 24-20 33-53 22-82"/>
      <path d="M201 103l72-48 94 73 32 55"/>
      <path d="M192 122l83 89"/>
      <path d="M311 88l89 88"/>
      <path d="M238 92l151 119"/>
    </g>
    <g fill="#003b6f">
      <circle cx="184" cy="124" r="16"/>
      <circle cx="400" cy="184" r="15"/>
      <circle cx="438" cy="126" r="15"/>
    </g>
    <path d="M203 204 429 37" fill="none" stroke="url(#tealArrow)" stroke-width="28" stroke-linecap="square"/>
    <circle cx="323" cy="115" r="23" fill="#18bba7"/>
    <path d="M404 35 492 10l-17 91z" fill="#18c7ae"/>
  </g>

  <g fill="#003b6f" font-family="Inter, Arial, sans-serif" font-weight="900" text-anchor="middle">
    <text x="320" y="225" font-size="73" letter-spacing="4">RESPAWN</text>
    <text x="320" y="270" font-size="48" letter-spacing="4">SOCIETY GROUP</text>
  </g>
</svg>
